<svg width="935" height="282" viewBox="0 0 935 282" fill="none" xmlns="http://www.w3.org/2000/svg">
<g clip-path="url(#clip0_2_47)">
<path fill-rule="evenodd" clip-rule="evenodd" d="M674.342 37.3748H696.776C709.064 37.3748 719.026 47.3365 719.026 59.6248C719.026 59.6249 719.026 59.6249 719.026 59.625H719.118C731.407 59.625 741.368 49.6633 741.368 37.375C741.368 25.0867 731.407 15.125 719.118 15.125H696.592C684.304 15.125 674.342 25.0866 674.342 37.3748Z" fill="url(#paint0_radial_2_47)"/>
<path fill-rule="evenodd" clip-rule="evenodd" d="M674.342 37.3748C674.342 37.3749 674.342 37.3749 674.342 37.375C674.342 49.6633 684.304 59.625 696.592 59.625H719.026C719.026 71.9132 709.065 81.8748 696.776 81.8748H674.25C661.962 81.8748 652 71.9132 652 59.6248C652 47.3365 661.962 37.3748 674.25 37.3748H674.342Z" fill="url(#paint1_radial_2_47)"/>
</g>
<path fill-rule="evenodd" clip-rule="evenodd" d="M810.63 60.0905L819.698 77.4135H832.544L817.515 52.3077L831.704 35.5705H818.942L808.866 48.1234V18.8333H797.699V77.4135H808.866V62.35L810.63 60.0905ZM790.999 71.2207C791.838 69.4912 792.258 67.3433 792.258 64.7769C792.258 60.9274 791.39 57.8868 789.655 55.6551C787.92 53.3677 784.869 51.8614 780.503 51.1361C778.656 50.8572 777.285 50.4666 776.389 49.9645C775.493 49.4066 775.046 48.6255 775.046 47.6213C775.046 46.3381 775.493 45.4455 776.389 44.9433C777.285 44.4412 778.768 44.1902 780.839 44.1902C783.134 44.1902 785.037 44.3575 786.549 44.6923C788.116 45.027 789.543 45.3897 790.831 45.7802V36.24C790.439 36.1284 789.851 35.9889 789.067 35.8216C788.34 35.6542 787.528 35.5147 786.633 35.4031C785.737 35.2358 784.813 35.0963 783.862 34.9847C782.91 34.8731 782.015 34.8173 781.175 34.8173C775.241 34.8173 770.847 35.8216 767.993 37.83C765.138 39.8385 763.711 43.1859 763.711 47.8724C763.711 51.443 764.578 54.2883 766.313 56.4083C768.105 58.5284 771.155 59.9789 775.465 60.76C777.592 61.1505 778.992 61.6805 779.664 62.35C780.391 63.0195 780.755 63.9958 780.755 65.279C780.755 66.7296 780.083 67.678 778.74 68.1243C777.453 68.5707 775.829 68.7938 773.87 68.7938C771.911 68.7938 770.036 68.6265 768.245 68.2917C766.453 67.9012 764.998 67.5664 763.878 67.2875V76.8277C764.438 76.9951 765.138 77.1624 765.978 77.3298C766.873 77.4414 767.825 77.553 768.832 77.6645C769.896 77.8319 770.987 77.9435 772.107 77.9993C773.226 78.1109 774.318 78.1667 775.381 78.1667C777.9 78.1667 780.195 77.9435 782.266 77.4972C784.338 77.0508 786.101 76.3256 787.556 75.3213C789.067 74.2613 790.215 72.8944 790.999 71.2207ZM835.912 77.4135V35.5705H847.08V77.4135H835.912ZM868.297 77.5809C869.752 77.4135 870.788 77.274 871.403 77.1624V67.8733C871.179 67.9291 870.76 68.0128 870.144 68.1243C869.584 68.1801 868.996 68.208 868.381 68.208C867.317 68.208 866.617 67.957 866.282 67.4549C865.946 66.8969 865.778 65.9485 865.778 64.6095V18.8333H854.611V65.028C854.611 69.3796 855.254 72.6155 856.542 74.7355C857.885 76.7998 860.292 77.8319 863.763 77.8319C865.386 77.8319 866.897 77.7482 868.297 77.5809ZM892.397 77.1624C891.782 77.274 890.746 77.4135 889.291 77.5809C887.891 77.7482 886.38 77.8319 884.757 77.8319C881.286 77.8319 878.879 76.7998 877.536 74.7355C876.248 72.6155 875.605 69.3796 875.605 65.028V18.8333H886.772V64.6095C886.772 65.9485 886.94 66.8969 887.276 67.4549C887.612 67.957 888.311 68.208 889.375 68.208C889.99 68.208 890.578 68.1801 891.138 68.1243C891.754 68.0128 892.174 67.9291 892.397 67.8733V77.1624ZM896.515 46.7844C895.731 49.6855 895.339 53.284 895.339 57.5799C895.339 61.5968 895.619 64.9443 896.179 67.6222C896.739 70.2444 897.606 72.3365 898.782 73.8987C899.957 75.4608 901.413 76.5766 903.148 77.2461C904.883 77.8598 906.926 78.1667 909.277 78.1667C911.46 78.1667 913.42 77.804 915.155 77.0787C916.89 76.2977 918.429 75.2655 919.773 73.9824L920.612 77.4135H929.68V18.8333H918.513V34.901H917.086C916.582 34.8452 916.05 34.8173 915.491 34.8173C911.964 34.8173 908.914 35.2079 906.339 35.9889C903.82 36.7142 901.749 37.9695 900.125 39.7548C898.502 41.5401 897.299 43.8833 896.515 46.7844ZM914.735 68.1243C914.007 68.4591 913.168 68.6265 912.216 68.6265C911.209 68.6265 910.341 68.487 909.613 68.208C908.942 67.9291 908.382 67.427 907.934 66.7017C907.486 65.9206 907.15 64.8606 906.926 63.5216C906.758 62.1826 906.674 60.4531 906.674 58.3331C906.674 55.432 906.814 53.0888 907.094 51.3035C907.374 49.4624 907.822 48.0397 908.438 47.0355C909.109 45.9755 909.949 45.2781 910.957 44.9433C912.02 44.5528 913.28 44.3575 914.735 44.3575C915.351 44.3575 915.966 44.3854 916.582 44.4412C917.254 44.497 917.898 44.5528 918.513 44.6086V62.35C918.513 63.0753 918.345 63.8285 918.01 64.6095C917.73 65.3348 917.31 66.0043 916.75 66.618C916.19 67.2317 915.519 67.7338 914.735 68.1243ZM841.52 30.8283C844.844 30.8283 847.539 28.1431 847.539 24.8308C847.539 21.5185 844.844 18.8333 841.52 18.8333C838.195 18.8333 835.5 21.5185 835.5 24.8308C835.5 28.1431 838.195 30.8283 841.52 30.8283Z" fill="white"/>
<path d="M44.2188 257.104C43.6215 257.253 42.7255 257.44 41.5308 257.664C40.4108 257.813 39.1788 257.963 37.8348 258.112C36.5655 258.336 35.2588 258.485 33.9148 258.56C32.6455 258.709 31.5628 258.784 30.6668 258.784C26.4108 258.784 22.7148 258.224 19.5788 257.104C16.4428 255.984 13.8295 253.931 11.7388 250.944C9.72282 247.883 8.22949 243.701 7.25882 238.4C6.28815 233.024 5.80282 226.08 5.80282 217.568C5.80282 209.056 6.36282 202.261 7.48282 197.184C8.60282 192.032 10.2828 188.112 12.5228 185.424C14.7628 182.736 17.5255 180.981 20.8108 180.16C24.0962 179.264 27.8668 178.816 32.1228 178.816C32.8695 178.816 33.8402 178.891 35.0348 179.04C36.2295 179.115 37.4242 179.227 38.6188 179.376C39.8882 179.525 41.0082 179.712 41.9788 179.936C43.0242 180.085 43.7708 180.235 44.2188 180.384V193.936C42.3522 193.488 40.1122 193.115 37.4988 192.816C34.9602 192.443 32.6828 192.256 30.6668 192.256C29.0242 192.256 27.6055 192.555 26.4108 193.152C25.2908 193.675 24.3575 194.832 23.6108 196.624C22.8642 198.416 22.3042 201.029 21.9308 204.464C21.5575 207.899 21.3708 212.528 21.3708 218.352C21.3708 224.176 21.5202 228.843 21.8188 232.352C22.1922 235.861 22.7148 238.587 23.3868 240.528C24.1335 242.469 25.1042 243.776 26.2988 244.448C27.4935 245.045 28.9495 245.344 30.6668 245.344C32.9815 245.344 35.4455 245.157 38.0588 244.784C40.7468 244.411 42.8002 244.037 44.2188 243.664V257.104ZM96.8422 228.88C96.8422 234.779 96.3195 239.669 95.2742 243.552C94.2289 247.36 92.6982 250.421 90.6822 252.736C88.6662 254.976 86.1275 256.544 83.0662 257.44C80.0795 258.336 76.6075 258.784 72.6502 258.784C68.6929 258.784 65.2209 258.336 62.2342 257.44C59.2475 256.544 56.7462 254.976 54.7302 252.736C52.7142 250.421 51.1835 247.36 50.1382 243.552C49.1675 239.669 48.6822 234.779 48.6822 228.88C48.6822 219.323 50.5489 212.341 54.2822 207.936C58.0902 203.456 64.2129 201.216 72.6502 201.216C81.0875 201.216 87.2102 203.456 91.0182 207.936C94.9009 212.341 96.8422 219.323 96.8422 228.88ZM81.6102 230.56C81.6102 227.275 81.4609 224.549 81.1622 222.384C80.8635 220.144 80.3409 218.352 79.5942 217.008C78.9222 215.664 78.0262 214.731 76.9062 214.208C75.7862 213.611 74.3675 213.312 72.6502 213.312C71.0075 213.312 69.6262 213.611 68.5062 214.208C67.3862 214.731 66.4902 215.664 65.8182 217.008C65.1462 218.352 64.6609 220.144 64.3622 222.384C64.0635 224.549 63.9142 227.275 63.9142 230.56C63.9142 233.696 64.0262 236.309 64.2502 238.4C64.5489 240.416 65.0342 242.059 65.7062 243.328C66.3782 244.523 67.2742 245.381 68.3942 245.904C69.5142 246.427 70.9329 246.688 72.6502 246.688C74.3675 246.688 75.7862 246.427 76.9062 245.904C78.1009 245.381 79.0342 244.523 79.7062 243.328C80.3782 242.059 80.8635 240.416 81.1622 238.4C81.4609 236.309 81.6102 233.696 81.6102 230.56ZM105.273 258V202H117.369L118.265 206.144C119.907 204.576 121.774 203.344 123.865 202.448C125.955 201.477 128.233 200.992 130.697 200.992C134.281 200.992 137.155 201.477 139.321 202.448C141.486 203.419 143.203 204.837 144.473 206.704C146.19 204.987 148.206 203.605 150.521 202.56C152.835 201.515 155.411 200.992 158.249 200.992C161.982 200.992 164.969 201.477 167.209 202.448C169.449 203.344 171.166 204.725 172.361 206.592C173.555 208.459 174.339 210.773 174.713 213.536C175.086 216.299 175.273 219.547 175.273 223.28V258H160.377V222.944C160.377 219.211 159.966 216.784 159.145 215.664C158.323 214.469 157.017 213.872 155.225 213.872C152.611 213.872 150.745 214.693 149.625 216.336C148.505 217.979 147.87 219.771 147.721 221.712V258H132.825V222.944C132.825 219.211 132.414 216.784 131.593 215.664C130.771 214.469 129.465 213.872 127.673 213.872C124.985 213.872 123.043 214.768 121.849 216.56C120.729 218.352 120.169 220.256 120.169 222.272V258H105.273ZM184.793 277.04V202H196.889L198.009 206.592C199.726 204.875 201.705 203.531 203.945 202.56C206.185 201.515 208.798 200.992 211.785 200.992C214.846 200.992 217.534 201.44 219.849 202.336C222.163 203.157 224.067 204.539 225.561 206.48C227.054 208.421 228.174 211.035 228.921 214.32C229.667 217.531 230.041 221.563 230.041 226.416C230.041 232.539 229.555 237.691 228.585 241.872C227.689 246.053 226.195 249.413 224.105 251.952C222.089 254.491 219.401 256.32 216.041 257.44C212.681 258.485 208.574 259.008 203.721 259.008C203.049 259.008 202.377 259.008 201.705 259.008C201.033 259.008 200.361 258.971 199.689 258.896V277.04H184.793ZM207.865 213.76C205.401 213.76 203.422 214.656 201.929 216.448C200.435 218.24 199.689 220.144 199.689 222.16V246.016C200.51 246.091 201.331 246.165 202.153 246.24C202.974 246.24 203.758 246.24 204.505 246.24C206.595 246.24 208.313 246.016 209.657 245.568C211.001 245.045 212.046 244.112 212.793 242.768C213.614 241.349 214.174 239.445 214.473 237.056C214.771 234.592 214.921 231.419 214.921 227.536C214.921 224.699 214.809 222.384 214.585 220.592C214.361 218.8 213.95 217.419 213.353 216.448C212.83 215.403 212.121 214.693 211.225 214.32C210.329 213.947 209.209 213.76 207.865 213.76ZM284.871 228.88C284.871 234.779 284.348 239.669 283.303 243.552C282.258 247.36 280.727 250.421 278.711 252.736C276.695 254.976 274.156 256.544 271.095 257.44C268.108 258.336 264.636 258.784 260.679 258.784C256.722 258.784 253.25 258.336 250.263 257.44C247.276 256.544 244.775 254.976 242.759 252.736C240.743 250.421 239.212 247.36 238.167 243.552C237.196 239.669 236.711 234.779 236.711 228.88C236.711 219.323 238.578 212.341 242.311 207.936C246.119 203.456 252.242 201.216 260.679 201.216C269.116 201.216 275.239 203.456 279.047 207.936C282.93 212.341 284.871 219.323 284.871 228.88ZM269.639 230.56C269.639 227.275 269.49 224.549 269.191 222.384C268.892 220.144 268.37 218.352 267.623 217.008C266.951 215.664 266.055 214.731 264.935 214.208C263.815 213.611 262.396 213.312 260.679 213.312C259.036 213.312 257.655 213.611 256.535 214.208C255.415 214.731 254.519 215.664 253.847 217.008C253.175 218.352 252.69 220.144 252.391 222.384C252.092 224.549 251.943 227.275 251.943 230.56C251.943 233.696 252.055 236.309 252.279 238.4C252.578 240.416 253.063 242.059 253.735 243.328C254.407 244.523 255.303 245.381 256.423 245.904C257.543 246.427 258.962 246.688 260.679 246.688C262.396 246.688 263.815 246.427 264.935 245.904C266.13 245.381 267.063 244.523 267.735 243.328C268.407 242.059 268.892 240.416 269.191 238.4C269.49 236.309 269.639 233.696 269.639 230.56ZM293.302 258V202H305.398L306.406 206.368C308.123 204.725 310.102 203.419 312.342 202.448C314.582 201.477 317.083 200.992 319.846 200.992C323.728 200.992 326.827 201.44 329.142 202.336C331.531 203.232 333.36 204.613 334.63 206.48C335.974 208.347 336.87 210.661 337.318 213.424C337.766 216.187 337.99 219.472 337.99 223.28V258H323.094V222.944C323.094 219.211 322.534 216.784 321.414 215.664C320.368 214.469 318.838 213.872 316.822 213.872C313.984 213.872 311.856 214.693 310.438 216.336C309.094 217.979 308.347 219.771 308.198 221.712V258H293.302ZM360.996 235.488C361.22 239.595 361.967 242.432 363.236 244C364.58 245.493 366.932 246.24 370.292 246.24C373.428 246.24 376.377 246.053 379.14 245.68C381.977 245.307 384.217 244.933 385.86 244.56V257.104C384.964 257.328 383.844 257.589 382.5 257.888C381.156 258.112 379.737 258.299 378.244 258.448C376.751 258.597 375.295 258.709 373.876 258.784C372.532 258.933 371.337 259.008 370.292 259.008C366.26 259.008 362.713 258.672 359.652 258C356.591 257.328 354.015 255.947 351.924 253.856C349.908 251.765 348.377 248.853 347.332 245.12C346.361 241.312 345.876 236.272 345.876 230C345.876 224.848 346.361 220.443 347.332 216.784C348.377 213.051 349.871 210.027 351.812 207.712C353.828 205.397 356.255 203.717 359.092 202.672C361.929 201.552 365.177 200.992 368.836 200.992C373.092 200.992 376.564 201.552 379.252 202.672C382.015 203.792 384.18 205.435 385.748 207.6C387.316 209.691 388.399 212.304 388.996 215.44C389.668 218.576 390.004 222.123 390.004 226.08V235.488H360.996ZM368.612 213.312C366.297 213.312 364.543 214.133 363.348 215.776C362.228 217.419 361.481 220.331 361.108 224.512H375.668V221.6C375.668 218.837 375.108 216.784 373.988 215.44C372.868 214.021 371.076 213.312 368.612 213.312ZM397.873 258V202H409.969L410.977 206.368C412.694 204.725 414.673 203.419 416.913 202.448C419.153 201.477 421.654 200.992 424.417 200.992C428.3 200.992 431.398 201.44 433.713 202.336C436.102 203.232 437.932 204.613 439.201 206.48C440.545 208.347 441.441 210.661 441.889 213.424C442.337 216.187 442.561 219.472 442.561 223.28V258H427.665V222.944C427.665 219.211 427.105 216.784 425.985 215.664C424.94 214.469 423.409 213.872 421.393 213.872C418.556 213.872 416.428 214.693 415.009 216.336C413.665 217.979 412.918 219.771 412.769 221.712V258H397.873ZM469.263 214.88V241.2C469.263 242.992 469.599 244.299 470.271 245.12C471.018 245.867 472.25 246.24 473.967 246.24C475.162 246.24 476.431 246.128 477.775 245.904C479.119 245.68 480.202 245.456 481.023 245.232V257.664C480.65 257.739 480.015 257.851 479.119 258C478.223 258.224 477.215 258.373 476.095 258.448C474.975 258.597 473.818 258.709 472.623 258.784C471.429 258.933 470.309 259.008 469.263 259.008C466.127 259.008 463.589 258.523 461.647 257.552C459.706 256.507 458.175 255.163 457.055 253.52C456.01 251.803 455.301 249.861 454.927 247.696C454.554 245.456 454.367 243.104 454.367 240.64V214.88H447.087V202H454.367V188.56H469.263V202H480.463V214.88H469.263ZM559.751 221.488C559.751 228.208 557.661 233.099 553.479 236.16C549.298 239.147 542.951 240.64 534.439 240.64C532.05 240.64 529.847 240.528 527.831 240.304C527.383 241.2 527.159 242.283 527.159 243.552C527.159 244 527.234 244.597 527.383 245.344C529.773 245.12 532.199 244.971 534.663 244.896C537.127 244.747 539.106 244.672 540.599 244.672C543.959 244.672 546.946 244.971 549.559 245.568C552.173 246.165 554.375 247.173 556.167 248.592C558.034 249.936 559.415 251.765 560.311 254.08C561.282 256.395 561.767 259.269 561.767 262.704C561.767 266.437 561.058 269.387 559.639 271.552C558.221 273.792 556.317 275.509 553.927 276.704C551.538 277.899 548.775 278.645 545.639 278.944C542.578 279.317 539.33 279.504 535.895 279.504C534.477 279.504 532.722 279.429 530.631 279.28C528.615 279.205 526.562 279.056 524.471 278.832C522.381 278.683 520.402 278.496 518.535 278.272C516.669 278.048 515.213 277.824 514.167 277.6V265.504C515.586 265.728 517.191 265.952 518.983 266.176C520.85 266.475 522.791 266.699 524.807 266.848C526.823 266.997 528.839 267.109 530.855 267.184C532.871 267.333 534.775 267.408 536.567 267.408C540.375 267.408 542.951 266.997 544.295 266.176C545.714 265.355 546.423 264.085 546.423 262.368C546.423 260.949 545.975 259.755 545.079 258.784C544.258 257.813 542.429 257.328 539.591 257.328C538.546 257.328 537.09 257.365 535.223 257.44C533.431 257.515 531.527 257.627 529.511 257.776C527.57 257.851 525.666 257.963 523.799 258.112C521.933 258.261 520.439 258.411 519.319 258.56C518.199 257.515 517.042 255.909 515.847 253.744C514.653 251.504 514.055 248.891 514.055 245.904C514.055 242.021 515.026 238.773 516.967 236.16C515.026 234.517 513.57 232.464 512.599 230C511.703 227.461 511.255 224.325 511.255 220.592C511.255 216.261 512.002 212.827 513.495 210.288C514.989 207.675 516.967 205.696 519.431 204.352C521.895 202.933 524.658 202.037 527.719 201.664C530.855 201.216 534.029 200.992 537.239 200.992C540.973 200.992 544.221 201.44 546.983 202.336L565.351 201.552V212.976L558.183 212.528C559.229 215.216 559.751 218.203 559.751 221.488ZM544.855 220.592C544.855 217.755 544.221 215.813 542.951 214.768C541.682 213.648 539.405 213.088 536.119 213.088C532.087 213.088 529.399 213.723 528.055 214.992C526.786 216.261 526.151 218.427 526.151 221.488C526.151 226.341 528.914 228.768 534.439 228.768C536.082 228.768 537.538 228.693 538.807 228.544C540.151 228.32 541.271 227.909 542.167 227.312C543.063 226.715 543.735 225.893 544.183 224.848C544.631 223.728 544.855 222.309 544.855 220.592ZM583.815 235.488C584.039 239.595 584.785 242.432 586.055 244C587.399 245.493 589.751 246.24 593.111 246.24C596.247 246.24 599.196 246.053 601.959 245.68C604.796 245.307 607.036 244.933 608.679 244.56V257.104C607.783 257.328 606.663 257.589 605.319 257.888C603.975 258.112 602.556 258.299 601.063 258.448C599.569 258.597 598.113 258.709 596.695 258.784C595.351 258.933 594.156 259.008 593.111 259.008C589.079 259.008 585.532 258.672 582.471 258C579.409 257.328 576.833 255.947 574.743 253.856C572.727 251.765 571.196 248.853 570.151 245.12C569.18 241.312 568.695 236.272 568.695 230C568.695 224.848 569.18 220.443 570.151 216.784C571.196 213.051 572.689 210.027 574.631 207.712C576.647 205.397 579.073 203.717 581.911 202.672C584.748 201.552 587.996 200.992 591.655 200.992C595.911 200.992 599.383 201.552 602.071 202.672C604.833 203.792 606.999 205.435 608.567 207.6C610.135 209.691 611.217 212.304 611.815 215.44C612.487 218.576 612.823 222.123 612.823 226.08V235.488H583.815ZM591.431 213.312C589.116 213.312 587.361 214.133 586.167 215.776C585.047 217.419 584.3 220.331 583.927 224.512H598.487V221.6C598.487 218.837 597.927 216.784 596.807 215.44C595.687 214.021 593.895 213.312 591.431 213.312ZM620.692 258V202H632.788L633.796 206.368C635.513 204.725 637.492 203.419 639.732 202.448C641.972 201.477 644.473 200.992 647.236 200.992C651.118 200.992 654.217 201.44 656.532 202.336C658.921 203.232 660.75 204.613 662.02 206.48C663.364 208.347 664.26 210.661 664.708 213.424C665.156 216.187 665.38 219.472 665.38 223.28V258H650.484V222.944C650.484 219.211 649.924 216.784 648.804 215.664C647.758 214.469 646.228 213.872 644.212 213.872C641.374 213.872 639.246 214.693 637.828 216.336C636.484 217.979 635.737 219.771 635.588 221.712V258H620.692ZM688.386 235.488C688.61 239.595 689.357 242.432 690.626 244C691.97 245.493 694.322 246.24 697.682 246.24C700.818 246.24 703.767 246.053 706.53 245.68C709.367 245.307 711.607 244.933 713.25 244.56V257.104C712.354 257.328 711.234 257.589 709.89 257.888C708.546 258.112 707.127 258.299 705.634 258.448C704.141 258.597 702.685 258.709 701.266 258.784C699.922 258.933 698.727 259.008 697.682 259.008C693.65 259.008 690.103 258.672 687.042 258C683.981 257.328 681.405 255.947 679.314 253.856C677.298 251.765 675.767 248.853 674.722 245.12C673.751 241.312 673.266 236.272 673.266 230C673.266 224.848 673.751 220.443 674.722 216.784C675.767 213.051 677.261 210.027 679.202 207.712C681.218 205.397 683.645 203.717 686.482 202.672C689.319 201.552 692.567 200.992 696.226 200.992C700.482 200.992 703.954 201.552 706.642 202.672C709.405 203.792 711.57 205.435 713.138 207.6C714.706 209.691 715.789 212.304 716.386 215.44C717.058 218.576 717.394 222.123 717.394 226.08V235.488H688.386ZM696.002 213.312C693.687 213.312 691.933 214.133 690.738 215.776C689.618 217.419 688.871 220.331 688.498 224.512H703.058V221.6C703.058 218.837 702.498 216.784 701.378 215.44C700.258 214.021 698.466 213.312 696.002 213.312ZM725.263 258V202H737.359L738.479 207.04C739.972 205.248 741.69 203.792 743.631 202.672C745.572 201.552 747.738 200.992 750.127 200.992C751.844 200.992 753.562 201.179 755.279 201.552V216.336C754.308 216.112 753.375 215.963 752.479 215.888C751.658 215.739 750.724 215.664 749.679 215.664C747.812 215.664 746.282 216.149 745.087 217.12C743.892 218.016 742.922 219.248 742.175 220.816C741.428 222.309 740.906 224.027 740.607 225.968C740.308 227.909 740.159 229.888 740.159 231.904V258H725.263ZM799.032 258C797.539 258 795.822 257.701 793.88 257.104C791.939 256.507 790.446 255.275 789.4 253.408C787.982 255.125 786.115 256.507 783.8 257.552C781.486 258.523 778.424 259.008 774.616 259.008C772.152 259.008 769.875 258.709 767.784 258.112C765.694 257.515 763.864 256.544 762.296 255.2C760.803 253.781 759.608 251.952 758.712 249.712C757.891 247.397 757.48 244.523 757.48 241.088C757.48 234.293 759.496 229.477 763.528 226.64C767.635 223.803 773.534 222.384 781.224 222.384H786.264V220.032C786.264 217.867 785.704 216.224 784.584 215.104C783.539 213.909 781.598 213.312 778.76 213.312C775.55 213.312 772.563 213.573 769.8 214.096C767.112 214.544 764.35 215.179 761.512 216V203.232C762.558 202.933 763.79 202.672 765.208 202.448C766.627 202.149 768.083 201.888 769.576 201.664C771.144 201.44 772.712 201.291 774.28 201.216C775.923 201.067 777.416 200.992 778.76 200.992C783.539 200.992 787.384 201.403 790.296 202.224C793.208 202.971 795.448 204.165 797.016 205.808C798.659 207.451 799.742 209.541 800.264 212.08C800.862 214.619 801.16 217.605 801.16 221.04V243.216C801.16 244.336 801.459 245.232 802.056 245.904C802.654 246.501 803.811 246.8 805.528 246.8V258H799.032ZM778.872 246.464C780.44 246.464 781.672 246.203 782.568 245.68C783.539 245.083 784.286 244.373 784.808 243.552C785.406 242.731 785.779 241.872 785.928 240.976C786.152 240.005 786.264 239.147 786.264 238.4V233.36H780.664C778.275 233.36 776.334 233.883 774.84 234.928C773.347 235.973 772.6 237.765 772.6 240.304C772.6 242.021 773.048 243.477 773.944 244.672C774.915 245.867 776.558 246.464 778.872 246.464ZM829.361 214.88V241.2C829.361 242.992 829.697 244.299 830.369 245.12C831.115 245.867 832.347 246.24 834.065 246.24C835.259 246.24 836.529 246.128 837.873 245.904C839.217 245.68 840.299 245.456 841.121 245.232V257.664C840.747 257.739 840.113 257.851 839.217 258C838.321 258.224 837.313 258.373 836.193 258.448C835.073 258.597 833.915 258.709 832.721 258.784C831.526 258.933 830.406 259.008 829.361 259.008C826.225 259.008 823.686 258.523 821.745 257.552C819.803 256.507 818.273 255.163 817.153 253.52C816.107 251.803 815.398 249.861 815.025 247.696C814.651 245.456 814.465 243.104 814.465 240.64V214.88H807.185V202H814.465V188.56H829.361V202H840.561V214.88H829.361ZM893.162 228.88C893.162 234.779 892.64 239.669 891.594 243.552C890.549 247.36 889.018 250.421 887.002 252.736C884.986 254.976 882.448 256.544 879.386 257.44C876.4 258.336 872.928 258.784 868.97 258.784C865.013 258.784 861.541 258.336 858.554 257.44C855.568 256.544 853.066 254.976 851.05 252.736C849.034 250.421 847.504 247.36 846.458 243.552C845.488 239.669 845.002 234.779 845.002 228.88C845.002 219.323 846.869 212.341 850.602 207.936C854.41 203.456 860.533 201.216 868.97 201.216C877.408 201.216 883.53 203.456 887.338 207.936C891.221 212.341 893.162 219.323 893.162 228.88ZM877.93 230.56C877.93 227.275 877.781 224.549 877.482 222.384C877.184 220.144 876.661 218.352 875.914 217.008C875.242 215.664 874.346 214.731 873.226 214.208C872.106 213.611 870.688 213.312 868.97 213.312C867.328 213.312 865.946 213.611 864.826 214.208C863.706 214.731 862.81 215.664 862.138 217.008C861.466 218.352 860.981 220.144 860.682 222.384C860.384 224.549 860.234 227.275 860.234 230.56C860.234 233.696 860.346 236.309 860.57 238.4C860.869 240.416 861.354 242.059 862.026 243.328C862.698 244.523 863.594 245.381 864.714 245.904C865.834 246.427 867.253 246.688 868.97 246.688C870.688 246.688 872.106 246.427 873.226 245.904C874.421 245.381 875.354 244.523 876.026 243.328C876.698 242.059 877.184 240.416 877.482 238.4C877.781 236.309 877.93 233.696 877.93 230.56ZM901.593 258V202H913.689L914.809 207.04C916.302 205.248 918.019 203.792 919.961 202.672C921.902 201.552 924.067 200.992 926.457 200.992C928.174 200.992 929.891 201.179 931.609 201.552V216.336C930.638 216.112 929.705 215.963 928.809 215.888C927.987 215.739 927.054 215.664 926.009 215.664C924.142 215.664 922.611 216.149 921.417 217.12C920.222 218.016 919.251 219.248 918.505 220.816C917.758 222.309 917.235 224.027 916.937 225.968C916.638 227.909 916.489 229.888 916.489 231.904V258H901.593Z" fill="url(#paint2_linear_2_47)"/>
<path d="M36.5988 0C38.3612 6.67406 44.0689 12.6307 50.2361 18.8112L51.5444 20.1195C61.2912 29.8646 72.1996 40.9348 72.1996 57.4526C72.1586 66.8722 68.3898 75.892 61.718 82.5382C55.0462 89.1844 46.0147 92.9158 36.5998 92.9158C27.1849 92.9158 18.1534 89.1844 11.4816 82.5382C4.80979 75.892 1.04102 66.8722 1 57.4526C1 41.2674 11.4733 30.3135 21.0619 20.7118L21.6539 20.1195L21.9485 19.8247C28.4935 13.2791 34.7397 7.03849 36.5988 0ZM280.098 53.2829C282.255 64.9312 275.187 76.3057 263.79 79.5221C253.035 82.1427 248.189 73.7858 247.308 71.5911C247.216 71.3626 247.132 71.1144 246.757 71.1192C246.367 71.1239 246.323 71.5262 246.319 71.5837V71.5904L246.316 77.4254L246.313 77.422V93H234.658V57.4573C234.659 45.6109 243.683 35.7164 255.474 34.6326C267.266 33.5495 277.94 41.6339 280.098 53.2829H280.098ZM36.5981 53.4235C36.5981 53.4235 34.3633 55.8549 32.0224 58.456L31.6947 58.8197C30.0032 60.7027 28.309 62.6196 27.4082 63.7216C25.4811 65.9811 24.4019 68.8422 24.3564 71.8122C24.3563 73.4209 24.6729 75.014 25.2882 76.5003C25.9034 77.9866 26.8053 79.3371 27.9422 80.4747C29.0792 81.6123 30.429 82.5147 31.9145 83.1304C33.4 83.7461 34.9922 84.0629 36.6002 84.0629C43.362 84.0629 48.844 78.5789 48.844 71.8129C48.8702 68.8182 47.7744 65.9224 45.7725 63.696C44.865 62.6838 43.2451 60.8697 41.6151 59.0455L41.2894 58.6804L36.5981 53.4235ZM309.912 34.634C321.585 35.7063 330.545 45.4141 330.724 57.103L330.727 57.4573V78.7594H319.073L319.067 71.5911C319.067 71.5911 319.05 71.1246 318.629 71.1178C318.253 71.1144 318.171 71.3632 318.079 71.5911C317.198 73.7845 312.352 82.1427 301.597 79.5207C290.201 76.3044 283.133 64.9299 285.29 53.2816C287.448 41.6339 298.122 33.5495 309.913 34.634H309.912ZM230.541 35.3594L230.537 57.1348C230.537 69.7094 222.337 79.9 209.77 79.9C197.326 79.9 189.283 69.9123 189.123 57.5114L189.121 57.1348L189.124 35.3804H200.726V57.1348C200.726 63.4978 203.478 68.6459 209.841 68.6459C216.124 68.6459 218.862 63.6209 218.927 57.364L218.928 57.1341L218.909 35.3594H230.541ZM347 22.0911V78.7777H335.425V22.0911H347ZM179.663 34.8862C181.211 35.2373 182.708 35.7856 184.116 36.5177L184.498 36.7218V49.9124L184.49 49.9043C184.425 49.8422 184.358 49.7822 184.289 49.7245L184.196 49.6474C183.446 49.0368 181.273 47.5108 177.305 46.571C167.418 44.2323 162.268 53.2079 162.167 55.2457L162.165 55.3052V78.7398H150.542V35.446H160.911L162.149 43.0321C162.149 43.0321 162.19 43.4263 162.556 43.4338C162.997 43.4453 163.002 43.2931 163.13 43.0321C163.392 42.5007 169.685 32.5826 179.663 34.8862ZM115.098 22.0688C132.275 22.0688 145.302 25.2229 145.302 50.3681C145.302 75.2733 131.503 78.6695 114.133 78.6695H100.912V22.0681L115.098 22.0688ZM307.807 45.857C305.513 45.8567 303.271 46.5371 301.363 47.8121C299.456 49.0871 297.969 50.8994 297.091 53.0198C296.213 55.1403 295.984 57.4736 296.431 59.7246C296.879 61.9757 297.983 64.0434 299.606 65.6662C301.228 67.2891 303.295 68.3941 305.545 68.8417C307.795 69.2892 310.127 69.0591 312.246 68.1805C314.365 67.3018 316.176 65.8142 317.45 63.9055C318.725 61.9969 319.404 59.7532 319.404 57.458C319.402 51.0517 314.211 45.8584 307.807 45.857ZM257.579 45.857C251.176 45.859 245.986 51.0517 245.984 57.458C245.983 59.7532 246.663 61.997 247.937 63.9056C249.211 65.8142 251.022 67.3019 253.142 68.1805C255.261 69.0592 257.593 69.2892 259.843 68.8416C262.093 68.394 264.16 67.2889 265.782 65.666C267.404 64.0431 268.509 61.9753 268.956 59.7242C269.404 57.4731 269.174 55.1398 268.296 53.0194C267.418 50.899 265.931 49.0867 264.023 47.8118C262.116 46.5369 259.873 45.8566 257.579 45.857ZM117.608 31.8801H112.615V68.848L117.415 68.9711C127.258 68.9711 133.596 68.0759 133.596 50.3675C133.596 33.5576 128.112 31.9112 117.608 31.8801ZM36.5988 20.4921L36.5948 20.4961L36.4947 20.5962L36.1258 20.9647L35.1844 21.9059L34.2336 22.8572L32.5752 24.5164L31.6872 25.4048L31.0067 26.0857L30.8803 26.2121L30.2086 26.8855L30.0235 27.0701L29.9613 27.133C28.5989 28.4893 25.8552 31.0241 29.1591 34.5954C30.8756 36.4514 35.9494 41.7908 41.2252 47.4182L41.9294 48.17C48.156 54.8198 54.4671 61.6723 55.7058 63.506C56.7702 65.082 56.9236 65.8203 58.3644 65.7683C59.1719 65.7385 59.7707 64.7744 60.0342 64.1976C61.2709 61.4931 63.3672 53.2971 57.2838 43.8259C53.0872 37.2898 44.8339 28.6644 40.1196 23.9444L39.7189 23.5441C37.8267 21.6577 36.5988 20.4921 36.5988 20.4921ZM20.8376 36.993C5.89198 51.7853 13.948 65.679 16.1307 65.7521C16.3565 65.7602 16.7335 65.7872 16.9917 65.0671C18.2419 61.5776 28.3009 51.4851 30.6607 49.0632C30.7538 48.9886 30.83 48.8951 30.8844 48.7889C30.9388 48.6827 30.9701 48.5662 30.9763 48.4471C30.9825 48.3279 30.9634 48.2088 30.9203 48.0975C30.8772 47.9863 30.8111 47.8854 30.7263 47.8015L20.8376 36.993Z" fill="#009DDE"/>
<defs>
<radialGradient id="paint0_radial_2_47" cx="0" cy="0" r="1" gradientUnits="userSpaceOnUse" gradientTransform="translate(674.202 59.7641) rotate(-33.6633) scale(80.5306 80.403)">
<stop stop-color="#59F4D3"/>
<stop offset="0.740235" stop-color="#5038EA"/>
</radialGradient>
<radialGradient id="paint1_radial_2_47" cx="0" cy="0" r="1" gradientUnits="userSpaceOnUse" gradientTransform="translate(719.026 37.2359) rotate(146.337) scale(80.5306 120.605)">
<stop stop-color="#B164FF"/>
<stop offset="0.740235" stop-color="#FF62AF"/>
</radialGradient>
<linearGradient id="paint2_linear_2_47" x1="832.5" y1="335" x2="212" y2="-91.9999" gradientUnits="userSpaceOnUse">
<stop stop-color="#27FCE2"/>
<stop offset="0.110416" stop-color="#1570EF"/>
<stop offset="0.219791" stop-color="#7A5AF8"/>
<stop offset="0.334375" stop-color="#FD6F8E"/>
<stop offset="0.459375" stop-color="white"/>
<stop offset="0.520833" stop-color="white"/>
<stop offset="0.6875" stop-color="#FD6F8E"/>
<stop offset="0.776042" stop-color="#7A5AF8"/>
<stop offset="0.880208" stop-color="#1570EF"/>
<stop offset="1" stop-color="#27FCE2"/>
</linearGradient>
<clipPath id="clip0_2_47">
<rect width="89.3684" height="89" fill="white" transform="translate(652 4)"/>
</clipPath>
</defs>
</svg>
